<svg width="720" height="369" viewBox="0 0 720 369" xmlns="http://www.w3.org/2000/svg"><title>Logo</title><g fill-rule="nonzero" fill="none"><path d="M34.834 187.287H6.7c-3.751 0-6.699-2.943-6.699-6.689V6.688C0 2.944 2.948 0 6.699 0h28.135c3.752 0 6.7 2.943 6.7 6.689v173.91c0 3.745-2.948 6.688-6.7 6.688zm165.598 0H171.76c-4.019 0-7.77-2.408-9.378-6.154L118.437 79.196c-.268-.535-.536-.268-.536 0v101.402c0 3.746-2.948 6.689-6.699 6.689H83.067c-3.752 0-6.7-2.943-6.7-6.689V6.688c0-3.745 2.948-6.688 6.7-6.688h28.671c4.02 0 7.77 2.408 9.378 6.154l43.945 102.205c.268.535.536.267.536 0V6.689c0-3.746 2.948-6.689 6.7-6.689h28.135c3.751 0 6.699 2.943 6.699 6.689v173.91c0 3.745-2.948 6.688-6.7 6.688zm109.058-70.366l-62.166-14.983c-3.751-.803-6.43-4.549-6.43-8.294V20.066C240.893 9.096 250.003 0 260.99 0h70.205c10.986 0 20.096 9.097 20.096 20.066v20.602c0 4.013-2.411 7.76-6.163 9.364l-29.207 12.04c-2.947 1.338-6.163-.802-6.163-4.013V38.528c0-.803-.536-1.338-1.34-1.338h-24.652c-.804 0-1.34.535-1.34 1.338v30.768c0 .803.536 1.338 1.34 1.606l62.166 14.715c3.752.803 6.431 4.548 6.431 8.294v73.31c0 10.97-9.11 20.066-20.097 20.066h-71.812c-10.986 0-20.097-9.097-20.097-20.066v-20.602c0-4.013 2.412-7.76 6.163-9.364l29.208-12.04c2.947-1.338 6.163.802 6.163 4.013v19.531c0 .803.535 1.338 1.34 1.338h26.26c.803 0 1.339-.535 1.339-1.338v-30.233c0-.803-.536-1.338-1.34-1.605zm110.934 70.366H392.29c-3.752 0-6.7-2.943-6.7-6.689V6.688c0-3.745 2.948-6.688 6.7-6.688h28.135c3.752 0 6.7 2.943 6.7 6.689v173.91c0 3.745-2.948 6.688-6.7 6.688zm140.142 0h-91.91c-3.75 0-6.698-2.943-6.698-6.689V6.688c0-3.745 2.947-6.688 6.698-6.688h91.91c10.986 0 20.096 9.097 20.096 20.066v147.155c0 10.97-9.11 20.066-20.096 20.066zM537.789 37.19h-32.958c-.804 0-1.34.535-1.34 1.338v110.231c0 .803.536 1.338 1.34 1.338h32.958c.804 0 1.34-.535 1.34-1.338V38.528c0-.803-.536-1.338-1.34-1.338zm175.512 150.097h-91.373c-3.752 0-6.7-2.943-6.7-6.689V6.688c0-3.745 2.948-6.688 6.7-6.688H713.3C717.052 0 720 2.943 720 6.689V30.5c0 3.746-2.948 6.689-6.699 6.689h-55.199c-.804 0-1.34.535-1.34 1.338v36.387c0 .802.536 1.338 1.34 1.338h38.586c3.751 0 6.699 2.943 6.699 6.688v21.137c0 3.746-2.948 6.689-6.7 6.689h-38.585c-.804 0-1.34.535-1.34 1.338v36.654c0 .803.536 1.338 1.34 1.338h55.2c3.75 0 6.698 2.943 6.698 6.689v23.812c0 3.746-2.948 6.689-6.699 6.689zM21.351 369H4.106C1.806 369 0 367.178 0 364.86V257.2c0-2.319 1.807-4.14 4.106-4.14h57.648c2.3 0 4.106 1.821 4.106 4.14v14.741c0 2.319-1.806 4.14-4.106 4.14H26.278c-.492 0-.82.332-.82.829v22.857c0 .496.328.828.82.828h25.13c2.299 0 4.105 1.822 4.105 4.14v13.085c0 2.319-1.806 4.14-4.106 4.14H26.278c-.492 0-.82.332-.82.829v42.07c0 2.318-1.807 4.14-4.107 4.14zm82.716 0H86.732c-2.311 0-4.127-1.822-4.127-4.14V257.2c0-2.319 1.816-4.14 4.127-4.14h57.62c6.768 0 12.382 5.63 12.382 12.422v48.529c0 6.79-5.614 12.422-12.383 12.422h-2.971c-.33 0-.66.33-.496.662l20.637 38.26c.991 1.656-.33 3.644-2.146 3.644h-18.49c-2.477 0-4.954-1.49-6.11-3.644l-20.637-38.26c-.165-.331-.66-.662-1.155-.662h-3.963c-.495 0-.825.33-.825.828v37.597c0 2.32-1.816 4.141-4.128 4.141zm26.84-93.644h-21.814c-.488 0-.814.338-.814.845v26.181c0 .507.326.845.814.845h21.814c.488 0 .814-.338.814-.845v-26.181c0-.507-.326-.845-.814-.845zM240.93 369h-49.86c-6.814 0-12.465-5.631-12.465-12.422v-91.095c0-6.791 5.65-12.423 12.465-12.423h49.86c6.814 0 12.465 5.632 12.465 12.423v91.095c0 6.79-5.65 12.422-12.465 12.422zm-14.046-93.644h-21.768c-.502 0-.837.333-.837.833v68.568c0 .5.335.832.837.832h21.768c.502 0 .837-.333.837-.832v-68.568c0-.5-.335-.833-.837-.833zM350.859 369h-17.622a6.299 6.299 0 0 1-5.765-3.81l-27.01-63.104c-.165-.331-.33-.165-.33 0v62.773c0 2.32-1.811 4.141-4.117 4.141h-17.293c-2.306 0-4.117-1.822-4.117-4.14V257.2c0-2.319 1.811-4.14 4.117-4.14h17.623c2.47 0 4.776 1.49 5.764 3.809l27.01 63.27c.165.331.33.165.33 0V257.2c0-2.319 1.811-4.14 4.117-4.14h17.293c2.306 0 4.118 1.821 4.118 4.14V364.86c0 2.32-1.812 4.141-4.118 4.141zm43.633-92.917h-19.769c-2.306 0-4.118-1.822-4.118-4.141v-14.74c0-2.32 1.812-4.142 4.118-4.142h66.554c2.306 0 4.118 1.822 4.118 4.141v14.741c0 2.319-1.812 4.14-4.118 4.14h-19.604c-.494 0-.823.332-.823.829v87.948c0 2.32-1.813 4.141-4.119 4.141h-17.297c-2.307 0-4.119-1.822-4.119-4.14v-87.95c0-.496-.33-.827-.823-.827zM521.628 369h-56.465a4.1 4.1 0 0 1-4.14-4.14V257.2a4.1 4.1 0 0 1 4.14-4.14h56.465a4.1 4.1 0 0 1 4.14 4.14v14.741a4.1 4.1 0 0 1-4.14 4.14h-34.111c-.497 0-.828.332-.828.829v22.525c0 .497.331.828.828.828h23.844a4.1 4.1 0 0 1 4.14 4.141v13.085a4.1 4.1 0 0 1-4.14 4.14h-23.844c-.497 0-.828.332-.828.829v22.69c0 .497.331.829.828.829h34.11a4.1 4.1 0 0 1 4.14 4.14v14.741a4.1 4.1 0 0 1-4.14 4.141zm98.255 0H602.26a6.299 6.299 0 0 1-5.764-3.81l-27.01-63.104c-.165-.331-.33-.165-.33 0v62.773c0 2.32-1.812 4.141-4.117 4.141h-17.294c-2.305 0-4.117-1.822-4.117-4.14V257.2c0-2.319 1.812-4.14 4.117-4.14h17.623c2.47 0 4.776 1.49 5.764 3.809l27.01 63.27c.165.331.33.165.33 0V257.2c0-2.319 1.812-4.14 4.117-4.14h17.294c2.305 0 4.117 1.821 4.117 4.14V364.86c0 2.32-1.812 4.141-4.117 4.141zm86.528 0h-57.044c-2.328 0-4.158-1.822-4.158-4.14V257.2c0-2.319 1.83-4.14 4.158-4.14h57.044c6.818 0 12.473 5.63 12.473 12.422v91.095c0 6.79-5.655 12.422-12.473 12.422zm-14.041-93.644h-20.647c-.504 0-.84.333-.84.833v68.568c0 .5.336.832.84.832h20.647c.504 0 .84-.333.84-.832v-68.568c0-.5-.336-.833-.84-.833z" fill="#FFF"/><rect fill="#FAD64D" y="206.239" width="720" height="27.87" rx="5"/></g></svg>