<svg width="838" height="107" viewBox="0 0 838 107" xmlns="http://www.w3.org/2000/svg"><title>Group 8 Copy 2</title><g fill-rule="nonzero" fill="none"><path d="M15.046 81H2.894A2.865 2.865 0 0 1 0 78.107V2.893A2.865 2.865 0 0 1 2.894 0h12.152a2.865 2.865 0 0 1 2.894 2.893v75.214A2.865 2.865 0 0 1 15.046 81zm71.528 0H74.19a4.427 4.427 0 0 1-4.051-2.661L51.157 34.25c-.115-.231-.231-.115-.231 0v43.856A2.865 2.865 0 0 1 48.032 81H35.88a2.865 2.865 0 0 1-2.894-2.893V2.893A2.865 2.865 0 0 1 35.88 0h12.384a4.427 4.427 0 0 1 4.05 2.661l18.982 44.203c.116.232.232.116.232 0V2.893A2.865 2.865 0 0 1 74.42 0h12.153a2.865 2.865 0 0 1 2.894 2.893v75.214A2.865 2.865 0 0 1 86.574 81zm47.107-30.433l-26.852-6.48c-1.62-.347-2.778-1.967-2.778-3.587V8.679c0-4.745 3.935-8.679 8.68-8.679h30.325c4.745 0 8.68 3.934 8.68 8.679v8.91a4.426 4.426 0 0 1-2.662 4.05l-12.616 5.207c-1.273.578-2.662-.347-2.662-1.736v-8.447c0-.347-.231-.579-.578-.579h-10.649c-.347 0-.578.232-.578.579V29.97c0 .347.231.579.578.694l26.852 6.365c1.62.347 2.778 1.967 2.778 3.587V72.32c0 4.745-3.935 8.679-8.68 8.679H112.5c-4.745 0-8.68-3.934-8.68-8.679v-8.91a4.426 4.426 0 0 1 2.661-4.05l12.616-5.207c1.273-.578 2.662.347 2.662 1.736v8.447c0 .347.232.579.579.579h11.343c.347 0 .578-.232.578-.579V51.261c0-.347-.231-.578-.578-.694zM181.597 81h-12.153a2.865 2.865 0 0 1-2.893-2.893V2.893A2.865 2.865 0 0 1 169.444 0h12.153a2.865 2.865 0 0 1 2.894 2.893v75.214A2.865 2.865 0 0 1 181.597 81zm60.533 0h-39.7a2.865 2.865 0 0 1-2.893-2.893V2.893A2.865 2.865 0 0 1 202.431 0h39.699c4.745 0 8.68 3.934 8.68 8.679V72.32c0 4.745-3.935 8.679-8.68 8.679zm-9.838-64.916h-14.236c-.348 0-.58.232-.58.579v47.674c0 .347.232.579.58.579h14.236c.347 0 .578-.232.578-.579V16.663c0-.347-.231-.579-.578-.579zM308.102 81h-39.468a2.865 2.865 0 0 1-2.893-2.893V2.893A2.865 2.865 0 0 1 268.634 0h39.468a2.865 2.865 0 0 1 2.893 2.893V13.19a2.865 2.865 0 0 1-2.893 2.893h-23.843c-.347 0-.578.232-.578.579V32.4c0 .347.231.579.578.579h16.667a2.865 2.865 0 0 1 2.893 2.892v9.142a2.865 2.865 0 0 1-2.893 2.893h-16.667c-.347 0-.578.231-.578.578v15.853c0 .347.231.579.578.579h23.843a2.865 2.865 0 0 1 2.893 2.893v10.298A2.865 2.865 0 0 1 308.102 81z" fill="#FFF"/><rect fill="#FAD64D" y="94.946" width="837.518" height="12.054" rx="3"/><path d="M350.966 81h-12.033c-1.605 0-2.865-1.273-2.865-2.893V2.893c0-1.62 1.26-2.893 2.865-2.893h40.224c1.604 0 2.865 1.273 2.865 2.893V13.19c0 1.62-1.26 2.893-2.865 2.893h-24.753c-.344 0-.573.232-.573.579V32.63c0 .348.229.579.573.579h17.533c1.605 0 2.865 1.273 2.865 2.893v9.141c0 1.62-1.26 2.893-2.865 2.893h-17.533c-.344 0-.573.232-.573.579v29.391c0 1.62-1.261 2.893-2.865 2.893zm57.715 0h-12.096c-1.613 0-2.88-1.273-2.88-2.893V2.893c0-1.62 1.267-2.893 2.88-2.893h40.203c4.723 0 8.64 3.934 8.64 8.679v33.904c0 4.744-3.917 8.678-8.64 8.678h-2.073c-.23 0-.46.232-.346.463l14.4 26.73c.691 1.157-.23 2.546-1.498 2.546H434.37c-1.728 0-3.456-1.041-4.262-2.546l-14.4-26.73c-.115-.231-.46-.463-.806-.463h-2.765c-.345 0-.576.232-.576.579v26.267c0 1.62-1.267 2.893-2.88 2.893zm18.727-65.423h-15.22c-.342 0-.569.236-.569.59v18.291c0 .354.227.59.568.59h15.22c.341 0 .569-.236.569-.59V16.167c0-.354-.228-.59-.568-.59zM504.176 81h-34.79c-4.755 0-8.697-3.934-8.697-8.679V8.68c0-4.745 3.942-8.679 8.697-8.679h34.79c4.755 0 8.698 3.934 8.698 8.679V72.32c0 4.745-3.943 8.679-8.698 8.679zm-9.8-65.423h-15.189c-.35 0-.584.232-.584.581v47.905c0 .349.233.581.584.581h15.188c.35 0 .584-.232.584-.581V16.158c0-.349-.233-.581-.584-.581zM580.878 81h-12.296a4.395 4.395 0 0 1-4.023-2.661L545.714 34.25c-.115-.231-.23-.115-.23 0v43.856c0 1.62-1.264 2.893-2.873 2.893h-12.066c-1.609 0-2.873-1.273-2.873-2.893V2.893c0-1.62 1.264-2.893 2.873-2.893h12.296a4.395 4.395 0 0 1 4.022 2.661l18.847 44.203c.115.232.23.116.23 0V2.893c0-1.62 1.264-2.893 2.872-2.893h12.067c1.608 0 2.873 1.273 2.873 2.893v75.214c0 1.62-1.265 2.893-2.873 2.893zm30.444-64.916h-13.794c-1.609 0-2.873-1.273-2.873-2.893V2.893c0-1.62 1.264-2.893 2.873-2.893h46.438c1.61 0 2.874 1.273 2.874 2.893V13.19c0 1.62-1.265 2.893-2.874 2.893H630.29c-.345 0-.575.232-.575.579v61.444c0 1.62-1.264 2.893-2.874 2.893h-12.069c-1.61 0-2.873-1.273-2.873-2.893V16.663c0-.347-.23-.579-.575-.579zM700.032 81h-39.399a2.863 2.863 0 0 1-2.888-2.893V2.893c0-1.62 1.271-2.893 2.888-2.893h39.399a2.863 2.863 0 0 1 2.888 2.893V13.19c0 1.62-1.27 2.893-2.888 2.893H676.23c-.347 0-.578.232-.578.579V32.4c0 .347.231.579.578.579h16.637a2.863 2.863 0 0 1 2.889 2.892v9.142c0 1.62-1.271 2.893-2.889 2.893h-16.637c-.347 0-.578.231-.578.578v15.853c0 .347.231.579.578.579h23.8a2.863 2.863 0 0 1 2.89 2.893v10.298c0 1.62-1.272 2.893-2.89 2.893zm68.557 0h-12.297a4.395 4.395 0 0 1-4.022-2.661L733.424 34.25c-.115-.231-.23-.115-.23 0v43.856c0 1.62-1.264 2.893-2.873 2.893h-12.066c-1.609 0-2.873-1.273-2.873-2.893V2.893c0-1.62 1.264-2.893 2.873-2.893h12.296a4.395 4.395 0 0 1 4.022 2.661l18.847 44.203c.114.232.23.116.23 0V2.893c0-1.62 1.263-2.893 2.872-2.893h12.067c1.608 0 2.872 1.273 2.872 2.893v75.214c0 1.62-1.264 2.893-2.872 2.893zm60.374 0h-39.802a2.869 2.869 0 0 1-2.9-2.893V2.893A2.869 2.869 0 0 1 789.16 0h39.802c4.758 0 8.703 3.934 8.703 8.679V72.32c0 4.745-3.945 8.679-8.703 8.679zm-9.797-65.423H804.76c-.351 0-.586.232-.586.581v47.905c0 .349.235.581.586.581h14.406c.352 0 .586-.232.586-.581V16.158c0-.349-.234-.581-.586-.581z" fill="#FFF"/></g></svg>